<?xml version="1.0" encoding="UTF-8"?><svg id="Layer_1" xmlns="http://www.w3.org/2000/svg" viewBox="0 0 121.39 90.23"><defs><style>.cls-1{fill:#fff;}.cls-2{fill:#231f20;}.cls-3{fill:#27aae1;}</style></defs><path class="cls-3" d="M75.22,46.09s-.07,.03-.11,.04c-.08-.1-.03-.1,.11-.04Z"/><path class="cls-3" d="M75.22,46.09s-.07,.03-.11,.04c-.08-.1-.03-.1,.11-.04Z"/><path class="cls-2" d="M112.9,37.54h0c-.23-.54-.47-1.06-.72-1.57-.25-.52-.5-1.04-.77-1.55-6.98-13.52-18.81-23.5-33.3-28.12-5.63-1.79-11.45-2.7-17.3-2.7-24.9,0-46.7,15.95-54.26,39.68-3.99,12.55-3.91,25.08,.23,35.27,1.96,4.84,5.02,7.29,16.32,7.29h.34c5.14-.02,9.6-.06,13.68-.15,.63-.01,1.25-.03,1.85-.04,8.44-.19,15.38-.56,23.69-1.19,.28-.02,.57-.05,.86-.07,.83-.07,1.73-.13,2.67-.19,9.38-.6,23.53-.89,31.35-.81h.18c5.98,.06,10.39,1.02,14.14,2.3,.02,.01,.04,.01,.06,.02,1.24-2.53,2.3-5.16,3.16-7.86,4.26-13.4,3.47-27.58-2.18-40.31Zm-37.79,8.59c-.08-.1-.03-.1,.11-.04-.04,.02-.07,.03-.11,.04Z"/><g><path class="cls-1" d="M52.14,55.69c-1.75,2.11-2.19,4.87-1.42,7.3-.3-2.24,.32-4.93,1.83-7.14,.56-.83,1.2-1.51,1.87-2.04-.85,.46-1.63,1.08-2.28,1.87h0Z"/><path class="cls-1" d="M53.13,52.43c-.97,.55-1.86,1.3-2.61,2.23-2.01,2.5-2.54,5.74-1.69,8.57-.32-2.62,.41-5.77,2.15-8.38,.65-.98,1.38-1.79,2.15-2.42Z"/><path class="cls-1" d="M49.42,53.84c.74-1.13,1.56-2.06,2.43-2.8-1.09,.65-2.09,1.51-2.94,2.6-2.27,2.89-2.89,6.6-1.96,9.83-.34-2.99,.51-6.61,2.47-9.62h0Z"/><path class="cls-1" d="M47.85,52.83c.82-1.28,1.74-2.34,2.7-3.18-1.21,.74-2.33,1.73-3.27,2.96-2.53,3.28-3.24,7.47-2.23,11.09-.36-3.36,.6-7.45,2.8-10.86h0Z"/><path class="cls-1" d="M46.28,51.82c.91-1.43,1.92-2.62,2.98-3.56-1.33,.83-2.56,1.94-3.6,3.32-2.79,3.67-3.59,8.34-2.5,12.35-.37-3.73,.7-8.29,3.12-12.11Z"/><path class="cls-1" d="M44.71,50.81c.99-1.58,2.1-2.9,3.26-3.94-1.45,.93-2.79,2.16-3.93,3.68-3.05,4.06-3.94,9.2-2.77,13.61-.39-4.11,.79-9.13,3.45-13.35h0Z"/><path class="cls-1" d="M43.15,49.8c1.08-1.73,2.28-3.18,3.53-4.32-1.57,1.02-3.03,2.37-4.27,4.04-3.31,4.45-4.29,10.07-3.04,14.87-.41-4.48,.89-9.97,3.77-14.59h.01Z"/><path class="cls-1" d="M41.58,48.8c1.16-1.88,2.46-3.45,3.81-4.7-1.69,1.12-3.26,2.59-4.6,4.4-3.58,4.84-4.64,10.93-3.31,16.14-.43-4.85,.98-10.81,4.09-15.83h0Z"/><path class="cls-1" d="M40.01,47.79c1.25-2.03,2.64-3.73,4.09-5.08-1.81,1.21-3.49,2.8-4.93,4.76-3.84,5.23-4.99,11.8-3.58,17.4-.45-5.23,1.08-11.65,4.42-17.07h0Z"/><path class="cls-1" d="M38.44,46.78c1.33-2.18,2.82-4.01,4.36-5.46-1.94,1.3-3.73,3.02-5.26,5.12-4.1,5.62-5.34,12.66-3.85,18.66-.47-5.6,1.17-12.49,4.74-18.32h0Z"/><path class="cls-1" d="M36.87,45.77c1.42-2.33,3-4.29,4.64-5.85-2.06,1.4-3.96,3.23-5.59,5.48-4.36,6.01-5.69,13.53-4.12,19.92-.48-5.97,1.27-13.33,5.07-19.56h0Z"/><path class="cls-1" d="M35.31,44.76c1.51-2.48,3.18-4.57,4.92-6.23-2.18,1.49-4.19,3.45-5.92,5.84-4.62,6.41-6.04,14.4-4.39,21.18-.5-6.35,1.36-14.17,5.39-20.8h0Z"/><path class="cls-1" d="M33.74,43.75c1.59-2.63,3.36-4.84,5.19-6.61-2.3,1.59-4.43,3.66-6.25,6.2-4.88,6.8-6.39,15.26-4.66,22.44-.52-6.72,1.46-15,5.71-22.04h.01Z"/><path class="cls-1" d="M32.17,42.75c1.68-2.78,3.54-5.12,5.47-6.99-2.42,1.68-4.66,3.88-6.58,6.56-5.14,7.19-6.74,16.13-4.93,23.71-.54-7.09,1.55-15.84,6.04-23.28Z"/><path class="cls-1" d="M30.6,41.74c1.76-2.93,3.72-5.4,5.75-7.37-2.54,1.77-4.89,4.09-6.91,6.92-5.4,7.58-7.09,16.99-5.2,24.97-.56-7.46,1.65-16.68,6.36-24.52Z"/><path class="cls-1" d="M35.06,32.98c-2.66,1.87-5.13,4.31-7.24,7.28-5.66,7.97-7.44,17.86-5.47,26.23-.57-7.84,1.74-17.52,6.69-25.77,1.85-3.08,3.9-5.68,6.02-7.75h0Z"/><path class="cls-1" d="M27.47,39.72c1.93-3.23,4.08-5.96,6.3-8.13-2.78,1.96-5.36,4.52-7.57,7.65-5.92,8.36-7.79,18.73-5.74,27.49-.59-8.21,1.84-18.36,7.01-27.01Z"/><path class="cls-1" d="M25.9,38.71c2.02-3.38,4.25-6.23,6.58-8.51-2.9,2.06-5.59,4.74-7.9,8.01-6.18,8.75-8.14,19.59-6.01,28.75-.61-8.58,1.93-19.2,7.33-28.25Z"/><path class="cls-1" d="M24.33,37.7c2.1-3.53,4.43-6.51,6.85-8.89-3.02,2.15-5.83,4.95-8.24,8.37-1.64,2.33-3,4.81-4.07,7.36,1.09-2.68,2.39-5.32,3.89-7.84,2.19-3.68,4.61-6.79,7.13-9.27-3.14,2.24-6.06,5.17-8.57,8.73-1.16,1.64-2.17,3.35-3.05,5.11,.87-1.9,1.84-3.76,2.92-5.57,2.28-3.83,4.79-7.07,7.41-9.65-3.26,2.34-6.29,5.38-8.9,9.09-.86,1.22-1.64,2.47-2.35,3.75,.7-1.42,1.46-2.83,2.27-4.2,2.36-3.98,4.97-7.35,7.68-10.03-3.38,2.43-6.53,5.6-9.23,9.45-.66,.94-1.27,1.92-1.85,2.9,.58-1.12,1.18-2.23,1.83-3.32,2.45-4.13,5.15-7.62,7.96-10.41-3.5,2.53-6.76,5.81-9.56,9.81-.46,.65-.9,1.32-1.32,1.99,.43-.81,.88-1.61,1.35-2.4,2.53-4.28,5.33-7.9,8.24-10.79-3.63,2.62-7,6.03-9.89,10.17-7.75,11.09-10.25,24.79-7.63,36.32-.33-5.04,.2-10.65,1.53-16.36-.92,5.52-.8,11.04,.36,16.12-.35-5.18,.24-10.98,1.73-16.86-1.09,5.67-1.03,11.39,.17,16.63-.36-5.32,.31-11.32,1.95-17.36-1.28,5.83-1.3,11.74-.06,17.13-.38-5.54,.4-11.83,2.27-18.11-1.55,6.05-1.67,12.26-.37,17.88-.43-6.21,.66-13.41,3.16-20.44-2.33,6.74-2.75,13.86-1.27,20.2-.63-8.96,2.03-20.04,7.66-29.49v-.02Z"/><path class="cls-1" d="M118.11,40.97c-.37-1.09-.77-2.17-1.21-3.23-.69-1.68-1.46-3.35-2.3-4.98-7.43-14.37-20.01-24.98-35.42-29.89-5.98-1.91-12.17-2.87-18.39-2.87C34.33,0,11.14,16.95,3.11,42.19c-4.26,13.35-4.14,26.74,.32,37.72,2.82,6.95,8.15,9.54,19.66,9.54h.35c17.35-.07,26.97-.66,40.29-1.46,4.72-.29,10.07-.61,16.33-.95,3.99-.14,7.39-.21,10.4-.21,10.31,0,16.79,.84,21.65,2.8l1.49,.6h.02l.76-1.43c1.65-3.14,3.04-6.45,4.12-9.86,4-12.54,3.82-25.74-.39-37.97Zm-42.57,5.22s-.07,.03-.11,.04c-.08-.1-.03-.1,.11-.04,.61-.22,.75-.47,.77-.59,0,.03,0,.07,.03,.12,1.57,1.41,3.59,1.25,5.68,.83-1.93,2.18-5.69-.03-6.48-.36Zm3.13-7.02c-1.63,.22-3.07,2.34-5.04,1-1.04-2.05,2.83-1.97,4.56-2.34,3.97-.6,8.97,2.66,10.57,5.37-3.24-2.37-6.24-4.55-10.09-4.03Zm36.4,38.68c-.86,2.7-1.92,5.33-3.16,7.86-.02-.01-.04-.01-.06-.02-3.73-1.27-8.11-2.23-14.04-2.3-1.32-2.63-2.28-6.07-3.22-8.2-2.5-9.07,2.04-16.07,2.04-16.08,3.58-5.62,5.49-6.88,11.49-7.41-6.13-8.42-.3-15.85-6.91-25.43-5.39-5.61-7.69-5.33-12.5-4.29-5.67,1.23-13.54,7.07-16.03,12.17-1.02,2.08-.43,5.04-1.58,6.49-3.82,4.82-11.91,2.89-14.04,7.85,.1,2.29,3.24,4.86,2.8,6.45-1.59,1.08-3.31,.89-4.27,2.38-.54,1.71,1.26,3.83,1.78,4.62-1.08-.46-3.52,.19-4.31,1.61,1.74,4.34-3.38,5.56-4.22,10.37,.68,7.55,10.89,5.27,16.23,8.95,.42,.29,.87,.76,1.34,1.32-.08,0-.15,.01-.23,.01-.94,.06-1.84,.12-2.67,.19-.29,.02-.58,.05-.86,.07-8.31,.63-15.25,1-23.69,1.19-.6,.01-1.22,.03-1.85,.04-4.08,.09-8.54,.13-13.68,.15h-.34c-11.3,0-14.36-2.45-16.32-7.29-4.14-10.19-4.22-22.72-.23-35.27C14.1,19.55,35.9,3.6,60.79,3.6c5.85,0,11.67,.91,17.3,2.7,14.49,4.62,26.32,14.6,33.3,28.12,.27,.51,.52,1.03,.77,1.55,.25,.51,.49,1.03,.72,1.56h0c5.65,12.74,6.44,26.92,2.18,40.32h.01Zm-53.91-24.59c-.97-1.2-1.84-2.45-2.77-3.72,2.32-.53,2.43,1.7,2.77,3.72Z"/><path class="cls-1" d="M107.89,60.16c-3.07-.7-6.32,2.07-7.26,6.18-.94,4.12,.79,8.02,3.86,8.72,3.07,.71,6.31-2.06,7.26-6.18,.94-4.11-.79-8.02-3.86-8.72Z"/><path class="cls-1" d="M111.41,59.18c.51-1.94-4.92-4.12-6.17-1.09,2.01-1.48,5-1.6,6.17,1.09Z"/></g></svg>